HIERARCHY
ROOT Hip
{
  OFFSET 0.000000 0.000000 0.000000
  CHANNELS 6 Xposition Yposition Zposition Zrotation Xrotation Yrotation
  JOINT RHip
  {
    OFFSET 0.000000 0.000000 0.000000
    CHANNELS 3 Xposition Yposition Zposition
    End Site
    {
      OFFSET 0.000000 0.100000 0.000000
    }
  }
  JOINT RKnee
  {
    OFFSET 0.000000 0.000000 0.000000
    CHANNELS 3 Xposition Yposition Zposition
    End Site
    {
      OFFSET 0.000000 0.100000 0.000000
    }
  }
  JOINT RFoot
  {
    OFFSET 0.000000 0.000000 0.000000
    CHANNELS 3 Xposition Yposition Zposition
    End Site
    {
      OFFSET 0.000000 0.100000 0.000000
    }
  }
  JOINT LHip
  {
    OFFSET 0.000000 0.000000 0.000000
    CHANNELS 3 Xposition Yposition Zposition
    End Site
    {
      OFFSET 0.000000 0.100000 0.000000
    }
  }
  JOINT LKnee
  {
    OFFSET 0.000000 0.000000 0.000000
    CHANNELS 3 Xposition Yposition Zposition
    End Site
    {
      OFFSET 0.000000 0.100000 0.000000
    }
  }
  JOINT LFoot
  {
    OFFSET 0.000000 0.000000 0.000000
    CHANNELS 3 Xposition Yposition Zposition
    End Site
    {
      OFFSET 0.000000 0.100000 0.000000
    }
  }
  JOINT Spine
  {
    OFFSET 0.000000 0.000000 0.000000
    CHANNELS 3 Xposition Yposition Zposition
    End Site
    {
      OFFSET 0.000000 0.100000 0.000000
    }
  }
  JOINT Thorax
  {
    OFFSET 0.000000 0.000000 0.000000
    CHANNELS 3 Xposition Yposition Zposition
    End Site
    {
      OFFSET 0.000000 0.100000 0.000000
    }
  }
  JOINT Nose
  {
    OFFSET 0.000000 0.000000 0.000000
    CHANNELS 3 Xposition Yposition Zposition
    End Site
    {
      OFFSET 0.000000 0.100000 0.000000
    }
  }
  JOINT Head
  {
    OFFSET 0.000000 0.000000 0.000000
    CHANNELS 3 Xposition Yposition Zposition
    End Site
    {
      OFFSET 0.000000 0.100000 0.000000
    }
  }
  JOINT LShoulder
  {
    OFFSET 0.000000 0.000000 0.000000
    CHANNELS 3 Xposition Yposition Zposition
    End Site
    {
      OFFSET 0.000000 0.100000 0.000000
    }
  }
  JOINT LElbow
  {
    OFFSET 0.000000 0.000000 0.000000
    CHANNELS 3 Xposition Yposition Zposition
    End Site
    {
      OFFSET 0.000000 0.100000 0.000000
    }
  }
  JOINT LWrist
  {
    OFFSET 0.000000 0.000000 0.000000
    CHANNELS 3 Xposition Yposition Zposition
    End Site
    {
      OFFSET 0.000000 0.100000 0.000000
    }
  }
  JOINT RShoulder
  {
    OFFSET 0.000000 0.000000 0.000000
    CHANNELS 3 Xposition Yposition Zposition
    End Site
    {
      OFFSET 0.000000 0.100000 0.000000
    }
  }
  JOINT RElbow
  {
    OFFSET 0.000000 0.000000 0.000000
    CHANNELS 3 Xposition Yposition Zposition
    End Site
    {
      OFFSET 0.000000 0.100000 0.000000
    }
  }
  JOINT RWrist
  {
    OFFSET 0.000000 0.000000 0.000000
    CHANNELS 3 Xposition Yposition Zposition
    End Site
    {
      OFFSET 0.000000 0.100000 0.000000
    }
  }
}
MOTION
Frames: 13
Frame Time: 0.033333
-0.000000 0.877022 -0.000002 0.000000 0.000000 0.000000 0.094162 0.000174 0.040703 0.158728 -0.303555 -0.225239 0.094483 -0.709672 -0.198200 -0.094163 -0.000138 -0.040686 -0.076085 -0.318639 -0.336130 -0.087368 -0.743024 -0.307579 0.016662 0.220590 -0.066437 0.021140 0.483568 -0.136938 0.095143 0.500515 -0.185172 0.063946 0.582493 -0.138455 -0.067722 0.454011 -0.196390 0.052918 0.496730 -0.339558 0.129892 0.653207 -0.233537 0.117233 0.490027 -0.077629 0.254886 0.550415 -0.110086 0.162306 0.693138 -0.155583
-0.000000 0.877021 -0.000002 0.000000 0.000000 0.000000 0.094111 -0.000342 0.042074 0.160408 -0.301363 -0.222653 0.094573 -0.709826 -0.197219 -0.094113 0.000378 -0.042057 -0.075020 -0.317966 -0.337234 -0.089219 -0.744265 -0.305679 0.017239 0.220036 -0.068840 0.022568 0.481719 -0.141332 0.098489 0.496339 -0.189186 0.068022 0.578824 -0.144383 -0.067284 0.452160 -0.201889 0.052239 0.505704 -0.342850 0.121232 0.666843 -0.233511 0.119218 0.488792 -0.078817 0.256785 0.560896 -0.112123 0.160525 0.706293 -0.154149
-0.000000 0.877021 -0.000001 0.000000 0.000000 0.000000 0.094258 -0.000614 0.043158 0.162060 -0.298995 -0.221057 0.094331 -0.708777 -0.198727 -0.094259 0.000651 -0.043141 -0.074252 -0.316505 -0.338522 -0.090764 -0.744206 -0.303610 0.017757 0.219352 -0.071357 0.024340 0.479451 -0.146587 0.101725 0.490783 -0.194204 0.072157 0.574206 -0.151545 -0.066884 0.449782 -0.208008 0.052506 0.510428 -0.348673 0.113949 0.676324 -0.234796 0.121967 0.487127 -0.081743 0.258105 0.568285 -0.116395 0.158886 0.716034 -0.155687
-0.000000 0.877021 0.000000 0.000000 0.000000 0.000000 0.094556 -0.000557 0.043698 0.163657 -0.296191 -0.221066 0.094127 -0.706508 -0.201300 -0.094558 0.000594 -0.043684 -0.073762 -0.314051 -0.340632 -0.091658 -0.742439 -0.302511 0.018187 0.218487 -0.072766 0.026326 0.476878 -0.150595 0.104634 0.484350 -0.198603 0.075963 0.569055 -0.158238 -0.066575 0.447283 -0.212280 0.053316 0.511563 -0.354012 0.108561 0.681969 -0.234918 0.125214 0.485026 -0.084373 0.258861 0.573118 -0.119680 0.157507 0.722381 -0.156052
-0.000000 0.877021 0.000002 0.000000 0.000000 0.000000 0.094869 -0.000291 0.043784 0.164939 -0.293300 -0.222318 0.094019 -0.703879 -0.204639 -0.094871 0.000328 -0.043774 -0.073630 -0.310843 -0.343531 -0.092385 -0.739578 -0.302729 0.018700 0.217469 -0.072999 0.028733 0.474084 -0.152888 0.107433 0.477143 -0.202220 0.079563 0.563469 -0.164345 -0.066127 0.444697 -0.214209 0.053667 0.510027 -0.357441 0.105106 0.684076 -0.234686 0.128899 0.482356 -0.086092 0.259654 0.575898 -0.119997 0.156592 0.725526 -0.153898
-0.000000 0.877021 0.000004 0.000000 0.000000 0.000000 0.095003 0.000040 0.043600 0.165706 -0.290315 -0.224143 0.094131 -0.701115 -0.210300 -0.095005 -0.000003 -0.043594 -0.073746 -0.307229 -0.346688 -0.093179 -0.736278 -0.305599 0.019359 0.216402 -0.073089 0.031480 0.471083 -0.155017 0.110310 0.469145 -0.206286 0.083008 0.557249 -0.171296 -0.065357 0.441630 -0.215280 0.053263 0.506053 -0.358476 0.103733 0.682739 -0.236440 0.132730 0.478933 -0.088305 0.260950 0.576643 -0.118799 0.156124 0.725213 -0.152399
-0.000000 0.877021 0.000005 0.000000 0.000000 0.000000 0.094826 0.000353 0.043217 0.166172 -0.287070 -0.226566 0.095107 -0.697669 -0.221770 -0.094827 -0.000316 -0.043214 -0.073821 -0.303547 -0.349833 -0.093819 -0.732653 -0.314554 0.020171 0.215474 -0.073056 0.034168 0.468112 -0.157460 0.113065 0.460635 -0.211165 0.085795 0.550459 -0.179921 -0.064216 0.437878 -0.215740 0.052115 0.499995 -0.355501 0.104341 0.678368 -0.240547 0.136229 0.474654 -0.091267 0.263026 0.575097 -0.118374 0.156607 0.721590 -0.154514
-0.000000 0.877021 0.000007 0.000000 0.000000 0.000000 0.094269 0.000563 0.042660 0.166915 -0.283631 -0.229844 0.097738 -0.693154 -0.241348 -0.094270 -0.000526 -0.042660 -0.073697 -0.299673 -0.352939 -0.094035 -0.728273 -0.331351 0.021179 0.214776 -0.072405 0.036643 0.465426 -0.159683 0.115136 0.451786 -0.216519 0.087413 0.543405 -0.190121 -0.062776 0.433681 -0.214985 0.050163 0.492439 -0.347602 0.106334 0.670894 -0.245920 0.139233 0.469568 -0.094134 0.266120 0.570772 -0.119006 0.159008 0.715261 -0.161238
-0.000000 0.877021 0.000009 0.000000 0.000000 0.000000 0.093499 0.000666 0.041919 0.168432 -0.279420 -0.234326 0.102305 -0.686780 -0.267380 -0.093500 -0.000629 -0.041923 -0.073117 -0.294528 -0.356479 -0.093660 -0.721690 -0.355622 0.022395 0.213995 -0.071403 0.039092 0.462506 -0.161378 0.116396 0.442199 -0.221874 0.088268 0.535887 -0.200637 -0.061193 0.428837 -0.212918 0.047693 0.482871 -0.336137 0.109128 0.659115 -0.251176 0.141977 0.463549 -0.096462 0.269970 0.562854 -0.118816 0.163397 0.705776 -0.171735
-0.000000 0.877021 0.000010 0.000000 0.000000 0.000000 0.092969 0.000796 0.041025 0.170432 -0.274166 -0.240295 0.107960 -0.679071 -0.293563 -0.092970 -0.000759 -0.041032 -0.072176 -0.288042 -0.360531 -0.092807 -0.713145 -0.383496 0.023730 0.212650 -0.071037 0.041478 0.458494 -0.163263 0.117079 0.431469 -0.227514 0.089165 0.527445 -0.210684 -0.059907 0.422840 -0.210664 0.044805 0.469877 -0.325991 0.111929 0.641572 -0.258757 0.144718 0.456322 -0.099106 0.273843 0.549939 -0.118430 0.168883 0.691422 -0.185859
-0.000000 0.877021 0.000012 0.000000 0.000000 0.000000 0.092979 0.001041 0.040069 0.172258 -0.269044 -0.247237 0.113555 -0.672557 -0.312025 -0.092979 -0.001005 -0.040079 -0.071374 -0.281818 -0.364409 -0.091324 -0.705512 -0.409113 0.025226 0.210435 -0.072805 0.043965 0.452853 -0.168011 0.117795 0.419515 -0.236013 0.090812 0.517733 -0.222655 -0.059012 0.415656 -0.211730 0.042121 0.452266 -0.324650 0.114673 0.617644 -0.275962 0.148169 0.447858 -0.104873 0.278162 0.530767 -0.123183 0.175377 0.670851 -0.207460
-0.000000 0.877021 0.000013 0.000000 0.000000 0.000000 0.093309 0.001390 0.039106 0.173982 -0.264441 -0.254157 0.118772 -0.667557 -0.320311 -0.093310 -0.001354 -0.039120 -0.071025 -0.276106 -0.368043 -0.088969 -0.698951 -0.431814 0.026984 0.206997 -0.076571 0.046982 0.445150 -0.176102 0.119377 0.406304 -0.248048 0.093432 0.506200 -0.237257 -0.057998 0.407555 -0.217729 0.040592 0.429116 -0.335528 0.118988 0.587248 -0.304766 0.152845 0.438377 -0.114030 0.284108 0.505026 -0.134649 0.183531 0.643555 -0.236547
-0.000000 0.877021 0.000015 0.000000 0.000000 0.000000 0.093485 0.001828 0.038054 0.175807 -0.259621 -0.260045 0.123380 -0.662211 -0.323639 -0.093485 -0.001792 -0.038072 -0.071014 -0.270015 -0.371767 -0.086584 -0.691523 -0.455713 0.028621 0.202306 -0.080530 0.050365 0.435257 -0.184991 0.121709 0.391326 -0.261173 0.096282 0.492114 -0.252398 -0.056744 0.398529 -0.226225 0.039461 0.399446 -0.353305 0.126066 0.548441 -0.336601 0.158049 0.428076 -0.123801 0.291473 0.472651 -0.148800 0.193043 0.607798 -0.267180
